<?xml version="1.0" encoding="utf-8"?>
<!-- Generator: Adobe Illustrator 24.0.2, SVG Export Plug-In . SVG Version: 6.00 Build 0)  -->
<svg version="1.1" id="Capa_1" xmlns="http://www.w3.org/2000/svg" xmlns:xlink="http://www.w3.org/1999/xlink" x="0px" y="0px"
	 viewBox="0 0 1163.43 400.47" style="enable-background:new 0 0 1163.43 400.47;" xml:space="preserve">
<style type="text/css">
	.st0{fill:none;stroke:#282928;stroke-miterlimit:10;}
	.st1{fill:#343434;}
	.st2{fill:#28948C;}
	.st3{fill:url(#SVGID_1_);}
</style>
<g>
	<path class="st0" d="M581.71,275.96"/>
</g>
<path class="st1" d="M581.71,218.2"/>
<g>
	<g>
		<path class="st0" d="M517.78,275.96"/>
	</g>
	<g>
		<path class="st2" d="M680.92,133.12c-13.56-11.34-30.72-17.75-48.16-20.68c-17.43-2.93-35.24-2.56-52.89-1.62
			c-5.17,0.28-11.87-0.43-13.23-5.42c-1.11-4.08,2.42-7.87,5.83-10.38c22.94-16.89,60.87-21.68,84.19-2.65
			C669.05,102.49,675.23,118.16,680.92,133.12z"/>
	</g>
	<g>
		<g>
			<path class="st1" d="M139.11,189.02h-27.88v72.34H94.41v-72.34H66.53v-14.86h72.58V189.02z"/>
		</g>
		<g>
			<path class="st1" d="M185.56,174.16h14.98l33.16,87.2h-17.44l-8.1-21.74H177.7l-7.98,21.74h-17.44L185.56,174.16z M205.09,227.7
				l-12.04-34.27l-12.53,34.27H205.09z"/>
		</g>
		<g>
			<path class="st1" d="M279.66,205.48v55.88h-16.95v-87.2h13.14l45.44,57.23v-57.11h16.95v87.08h-13.76L279.66,205.48z"/>
		</g>
		<g>
			<path class="st1" d="M529.39,246.5v14.86h-60.55v-87.2h59.44v14.86h-42.49v21h36.72v13.75h-36.72v22.73H529.39z"/>
		</g>
		<g>
			<path class="st1" d="M629.33,261.36v-57.72l-22.47,42.99h-9.21l-22.47-42.99v57.72h-16.95v-87.2h18.18l25.79,49.62l26.04-49.62
				h18.05v87.2H629.33z"/>
		</g>
		<g>
			<linearGradient id="SVGID_1_" gradientUnits="userSpaceOnUse" x1="715.8425" y1="304.4249" x2="715.8425" y2="89.5882">
				<stop  offset="0" style="stop-color:#10827A"/>
				<stop  offset="1" style="stop-color:#44AAA3"/>
			</linearGradient>
			<path class="st3" d="M673.46,92.31c19.63,23.71,28.91,54.88,29.03,85.43c0.13,31.52-8.95,62.58-22.55,91.01
				c-4.94,10.32-10.41,22.92-4.07,32.45c6.61,9.94,21.64,9.19,32.64,4.55c27.39-11.54,45.75-39.83,49.4-69.33
				s-6.05-59.62-22.6-84.31C719.06,127.87,696.86,109.32,673.46,92.31z"/>
		</g>
		<g>
			<path class="st1" d="M367.07,176c6.87-1.15,15.65-1.78,24.94-1.78c16.03,0,27.1,3.31,34.99,9.93
				c8.27,6.74,13.36,16.92,13.36,31.55c0,15.27-5.22,26.72-13.36,34.1c-8.52,7.76-22.14,11.71-38.81,11.71
				c-9.16,0-16.03-0.51-21.12-1.15V176z M382.72,248.65c2.16,0.38,5.47,0.38,8.65,0.38c20.36,0.13,32.45-11.07,32.45-32.83
				c0.13-18.96-10.81-29.77-30.41-29.77c-4.96,0-8.52,0.38-10.69,0.89V248.65z"/>
		</g>
		<g>
			<path class="st1" d="M857.77,180.1h-31.93v81.55h-6.26V180.1h-31.93v-5.65h70.13V180.1z"/>
			<path class="st1" d="M929.38,256v5.65h-58.09v-87.2h56.99v5.65h-50.72v34.27h44.34v5.4h-44.34V256H929.38z"/>
			<path class="st1" d="M938.59,217.43c0-5.24,0.92-10.46,2.76-15.66c1.84-5.2,4.52-9.84,8.04-13.94
				c3.52-4.09,7.84-7.43,12.96-10.01c5.12-2.58,10.95-3.87,17.5-3.87c7.78,0,14.41,1.78,19.9,5.34c5.48,3.56,9.58,8.13,12.28,13.69
				l-5.16,2.95c-1.56-3.03-3.38-5.57-5.47-7.61c-2.09-2.05-4.34-3.7-6.75-4.97c-2.42-1.27-4.93-2.19-7.55-2.76
				c-2.62-0.57-5.2-0.86-7.74-0.86c-5.57,0-10.48,1.13-14.74,3.38c-4.26,2.25-7.86,5.18-10.81,8.78c-2.95,3.6-5.18,7.68-6.69,12.22
				c-1.52,4.54-2.27,9.11-2.27,13.69c0,5.16,0.9,10.07,2.7,14.74c1.8,4.67,4.26,8.78,7.37,12.34c3.11,3.56,6.79,6.41,11.05,8.54
				c4.26,2.13,8.84,3.19,13.76,3.19c2.62,0,5.32-0.33,8.11-0.98c2.78-0.65,5.44-1.68,7.98-3.07c2.54-1.39,4.91-3.17,7.12-5.34
				c2.21-2.17,4.05-4.73,5.53-7.68l5.4,2.58c-1.47,3.28-3.48,6.18-6.02,8.72c-2.54,2.54-5.36,4.67-8.47,6.39
				c-3.11,1.72-6.41,3.01-9.89,3.87c-3.48,0.86-6.9,1.29-10.26,1.29c-5.98,0-11.44-1.31-16.4-3.93c-4.96-2.62-9.23-6.04-12.83-10.26
				c-3.6-4.22-6.41-9.01-8.41-14.37C939.59,228.47,938.59,223,938.59,217.43z"/>
			<path class="st1" d="M1096.9,174.45v87.2h-6.26v-41.76h-55.02v41.76h-6.26v-87.2h6.26v39.79h55.02v-39.79H1096.9z"/>
		</g>
	</g>
</g>
</svg>
